<?xml version="1.0" encoding="UTF-8"?>
<!DOCTYPE svg PUBLIC "-//W3C//DTD SVG 1.1//EN" "http://www.w3.org/Graphics/SVG/1.1/DTD/svg11.dtd">
<svg xmlns="http://www.w3.org/2000/svg" version="1.1" width="48px" height="48px" style="shape-rendering:geometricPrecision; text-rendering:geometricPrecision; image-rendering:optimizeQuality; fill-rule:evenodd; clip-rule:evenodd" xmlns:xlink="http://www.w3.org/1999/xlink">
<g><path style="opacity:0.96" fill="#b0bbc2" d="M 16.5,5.5 C 16.9492,7.97747 16.2825,9.97747 14.5,11.5C 12.7175,9.97747 12.0508,7.97747 12.5,5.5C 12.5,4.5 12.5,3.5 12.5,2.5C 13.8333,2.5 15.1667,2.5 16.5,2.5C 16.5,3.5 16.5,4.5 16.5,5.5 Z"/></g>
<g><path style="opacity:0.96" fill="#b0bbc2" d="M 34.5,5.5 C 34.9492,7.97747 34.2825,9.97747 32.5,11.5C 30.7175,9.97747 30.0508,7.97747 30.5,5.5C 30.5,4.5 30.5,3.5 30.5,2.5C 31.8333,2.5 33.1667,2.5 34.5,2.5C 34.5,3.5 34.5,4.5 34.5,5.5 Z"/></g>
<g><path style="opacity:0.985" fill="#f04134" d="M 12.5,5.5 C 12.0508,7.97747 12.7175,9.97747 14.5,11.5C 16.2825,9.97747 16.9492,7.97747 16.5,5.5C 21.1667,5.5 25.8333,5.5 30.5,5.5C 30.0508,7.97747 30.7175,9.97747 32.5,11.5C 34.2825,9.97747 34.9492,7.97747 34.5,5.5C 37.1194,5.23166 39.6194,5.565 42,6.5C 42.498,9.48162 42.6646,12.4816 42.5,15.5C 29.8333,15.5 17.1667,15.5 4.5,15.5C 4.33537,12.4816 4.50204,9.48162 5,6.5C 7.3806,5.565 9.8806,5.23166 12.5,5.5 Z"/></g>
<g><path style="opacity:0.998" fill="#c2cdd3" d="M 4.5,15.5 C 17.1667,15.5 29.8333,15.5 42.5,15.5C 42.6664,23.84 42.4997,32.1733 42,40.5C 29.6667,41.8333 17.3333,41.8333 5,40.5C 4.50027,32.1733 4.3336,23.84 4.5,15.5 Z"/></g>
</svg>
