<?xml version="1.0" encoding="UTF-8"?>
<!DOCTYPE svg PUBLIC "-//W3C//DTD SVG 1.1//EN" "http://www.w3.org/Graphics/SVG/1.1/DTD/svg11.dtd">
<svg xmlns="http://www.w3.org/2000/svg" version="1.1" width="48px" height="48px" style="shape-rendering:geometricPrecision; text-rendering:geometricPrecision; image-rendering:optimizeQuality; fill-rule:evenodd; clip-rule:evenodd" xmlns:xlink="http://www.w3.org/1999/xlink">
<g><path style="opacity:1" fill="#77b8f6" d="M 23.5,7.5 C 23.4734,10.4867 23.4734,13.4867 23.5,16.5C 23.2427,18.6924 22.2427,20.3591 20.5,21.5C 20.2041,19.597 19.5375,17.9303 18.5,16.5C 17.8333,15.5 17.1667,14.5 16.5,13.5C 17.7464,10.357 20.0797,8.35704 23.5,7.5 Z"/></g>
<g><path style="opacity:1" fill="#70b1f6" d="M 23.5,7.5 C 24.5,7.5 25.5,7.5 26.5,7.5C 27.0037,11.5066 27.1703,15.5066 27,19.5C 24.9052,21.0893 23.4052,23.0893 22.5,25.5C 21.2921,26.2341 19.9587,26.5674 18.5,26.5C 19.4408,24.9505 20.1075,23.2838 20.5,21.5C 22.2427,20.3591 23.2427,18.6924 23.5,16.5C 23.4734,13.4867 23.4734,10.4867 23.5,7.5 Z"/></g>
<g><path style="opacity:0.956" fill="#89cbf4" d="M 13.5,13.5 C 11.4945,22.1693 9.49453,30.836 7.5,39.5C 6.20895,39.7373 5.20895,39.404 4.5,38.5C 6.01966,33.1875 7.68633,27.8542 9.5,22.5C 9.27574,19.9196 8.60908,17.5862 7.5,15.5C 8.98989,13.7202 10.9899,13.0535 13.5,13.5 Z"/></g>
<g><path style="opacity:1" fill="#7ec4f2" d="M 13.5,13.5 C 14.5,13.5 15.5,13.5 16.5,13.5C 17.1667,14.5 17.8333,15.5 18.5,16.5C 18.6549,19.4619 17.1549,21.7952 14,23.5C 11.2788,28.496 10.1122,33.8293 10.5,39.5C 9.5,39.5 8.5,39.5 7.5,39.5C 9.49453,30.836 11.4945,22.1693 13.5,13.5 Z"/></g>
<g><path style="opacity:1" fill="#67a4f6" d="M 30.5,7.5 C 32.153,7.6596 33.4863,8.32627 34.5,9.5C 33.554,14.721 33.2206,20.221 33.5,26C 34.2438,27.0386 35.2438,27.5386 36.5,27.5C 36.573,29.0269 35.9063,30.0269 34.5,30.5C 34.1667,30.5 33.8333,30.5 33.5,30.5C 33.1667,29.5 32.5,28.8333 31.5,28.5C 31.6107,27.8826 31.944,27.3826 32.5,27C 30.6951,26.028 29.0284,24.8613 27.5,23.5C 28.5312,22.2997 29.3645,20.9663 30,19.5C 30.2406,15.3607 30.4073,11.3607 30.5,7.5 Z"/></g>
<g><path style="opacity:1" fill="#69aaf5" d="M 26.5,7.5 C 27.8333,7.5 29.1667,7.5 30.5,7.5C 30.4073,11.3607 30.2406,15.3607 30,19.5C 29.3645,20.9663 28.5312,22.2997 27.5,23.5C 29.0284,24.8613 30.6951,26.028 32.5,27C 31.944,27.3826 31.6107,27.8826 31.5,28.5C 31.44,29.0431 31.1067,29.3764 30.5,29.5C 29.3049,27.703 27.6382,26.703 25.5,26.5C 26.0764,24.2167 25.0764,23.8834 22.5,25.5C 23.4052,23.0893 24.9052,21.0893 27,19.5C 27.1703,15.5066 27.0037,11.5066 26.5,7.5 Z"/></g>
<g><path style="opacity:0.993" fill="#96d4f6" d="M 7.5,15.5 C 8.60908,17.5862 9.27574,19.9196 9.5,22.5C 7.68633,27.8542 6.01966,33.1875 4.5,38.5C 3.83333,38.1667 3.16667,37.8333 2.5,37.5C 3.83333,32.1667 3.83333,26.8333 2.5,21.5C 4.51582,19.751 6.18249,17.751 7.5,15.5 Z"/></g>
<g><path style="opacity:1" fill="#689ff8" d="M 34.5,9.5 C 36.0269,9.42702 37.0269,10.0937 37.5,11.5C 37.7771,14.4475 37.4438,17.2809 36.5,20C 37.5,20.3333 38.5,20.6667 39.5,21C 38.871,23.3748 37.871,25.5414 36.5,27.5C 35.2438,27.5386 34.2438,27.0386 33.5,26C 33.2206,20.221 33.554,14.721 34.5,9.5 Z"/></g>
<g><path style="opacity:1" fill="#5d97f8" d="M 37.5,11.5 C 39.8676,13.9557 40.8676,16.9557 40.5,20.5C 40.4519,23.3128 39.7853,25.9795 38.5,28.5C 40.6969,32.0096 41.0302,35.6763 39.5,39.5C 38.8333,39.5 38.1667,39.5 37.5,39.5C 37.0951,36.2854 36.0951,33.2854 34.5,30.5C 35.9063,30.0269 36.573,29.0269 36.5,27.5C 37.871,25.5414 38.871,23.3748 39.5,21C 38.5,20.6667 37.5,20.3333 36.5,20C 37.4438,17.2809 37.7771,14.4475 37.5,11.5 Z"/></g>
<g><path style="opacity:1" fill="#72bcf1" d="M 18.5,16.5 C 19.5375,17.9303 20.2041,19.597 20.5,21.5C 20.1075,23.2838 19.4408,24.9505 18.5,26.5C 14.1101,29.6187 12.1101,33.952 12.5,39.5C 11.8333,39.5 11.1667,39.5 10.5,39.5C 10.1122,33.8293 11.2788,28.496 14,23.5C 17.1549,21.7952 18.6549,19.4619 18.5,16.5 Z"/></g>
<g><path style="opacity:0.963" fill="#5a8dfc" d="M 40.5,20.5 C 42.153,20.6596 43.4863,21.3263 44.5,22.5C 43.3203,27.9365 42.6537,33.2698 42.5,38.5C 41.791,39.404 40.791,39.7373 39.5,39.5C 41.0302,35.6763 40.6969,32.0096 38.5,28.5C 39.7853,25.9795 40.4519,23.3128 40.5,20.5 Z"/></g>
<g><path style="opacity:0.94" fill="#a2def8" d="M 2.5,21.5 C 3.83333,26.8333 3.83333,32.1667 2.5,37.5C 1.72813,36.3065 0.728127,35.3065 -0.5,34.5C -0.5,31.1667 -0.5,27.8333 -0.5,24.5C 0.728127,23.6935 1.72813,22.6935 2.5,21.5 Z"/></g>
<g><path style="opacity:0.908" fill="#5583fe" d="M 44.5,22.5 C 45.7281,23.3065 46.7281,24.3065 47.5,25.5C 47.5,28.5 47.5,31.5 47.5,34.5C 46.4412,36.5554 44.7746,37.8888 42.5,38.5C 42.6537,33.2698 43.3203,27.9365 44.5,22.5 Z"/></g>
<g><path style="opacity:1" fill="#44a0ec" d="M 25.5,26.5 C 27.6382,26.703 29.3049,27.703 30.5,29.5C 31.1067,29.3764 31.44,29.0431 31.5,28.5C 32.5,28.8333 33.1667,29.5 33.5,30.5C 33.5,33.5 33.5,36.5 33.5,39.5C 32.1667,39.5 30.8333,39.5 29.5,39.5C 28.8519,37.9142 28.3519,36.2475 28,34.5C 25.3622,33.3522 23.1955,31.6855 21.5,29.5C 22.2623,27.7376 23.5956,26.7376 25.5,26.5 Z"/></g>
<g><path style="opacity:1" fill="#32a2e5" d="M 21.5,29.5 C 23.1955,31.6855 25.3622,33.3522 28,34.5C 28.3519,36.2475 28.8519,37.9142 29.5,39.5C 24.8333,39.5 20.1667,39.5 15.5,39.5C 16.1999,36.9373 17.1999,34.4373 18.5,32C 19.1301,30.6898 20.1301,29.8565 21.5,29.5 Z"/></g>
<g><path style="opacity:1" fill="#4898f0" d="M 33.5,30.5 C 33.8333,30.5 34.1667,30.5 34.5,30.5C 36.0951,33.2854 37.0951,36.2854 37.5,39.5C 36.1667,39.5 34.8333,39.5 33.5,39.5C 33.5,36.5 33.5,33.5 33.5,30.5 Z"/></g>
<g><path style="opacity:1" fill="#57aeee" d="M 25.5,26.5 C 23.5956,26.7376 22.2623,27.7376 21.5,29.5C 20.1301,29.8565 19.1301,30.6898 18.5,32C 17.1999,34.4373 16.1999,36.9373 15.5,39.5C 14.5,39.5 13.5,39.5 12.5,39.5C 12.1101,33.952 14.1101,29.6187 18.5,26.5C 19.9587,26.5674 21.2921,26.2341 22.5,25.5C 25.0764,23.8834 26.0764,24.2167 25.5,26.5 Z"/></g>
</svg>
