<?xml version="1.0" encoding="UTF-8"?>
<!DOCTYPE svg PUBLIC "-//W3C//DTD SVG 1.1//EN" "http://www.w3.org/Graphics/SVG/1.1/DTD/svg11.dtd">
<svg xmlns="http://www.w3.org/2000/svg" version="1.1" width="48px" height="48px" style="shape-rendering:geometricPrecision; text-rendering:geometricPrecision; image-rendering:optimizeQuality; fill-rule:evenodd; clip-rule:evenodd" xmlns:xlink="http://www.w3.org/1999/xlink">
<g><path style="opacity:0.746" fill="#80dceb" d="M 18.5,2.5 C 21.8499,2.33499 25.1832,2.50166 28.5,3C 29.5,4 30.5,5 31.5,6C 29.6584,7.3435 27.9917,8.8435 26.5,10.5C 24.6293,9.23302 22.7959,9.23302 21,10.5C 19.4422,8.64115 17.6089,7.14115 15.5,6C 16.7101,4.9609 17.7101,3.79423 18.5,2.5 Z"/></g>
<g><path style="opacity:1" fill="#455b65" d="M 14.5,11.5 C 20.5,11.5 26.5,11.5 32.5,11.5C 32.5,22.8333 32.5,34.1667 32.5,45.5C 26.5,45.5 20.5,45.5 14.5,45.5C 14.5,34.1667 14.5,22.8333 14.5,11.5 Z"/></g>
<g><path style="opacity:1" fill="#62b1ef" d="M 20.5,14.5 C 27.6545,14.1527 30.8212,17.486 30,24.5C 25.6667,29.8333 21.3333,29.8333 17,24.5C 16.3333,22.5 16.3333,20.5 17,18.5C 18.3756,17.2949 19.5423,15.9616 20.5,14.5 Z"/></g>
<g><path style="opacity:1" fill="#486373" d="M 21.5,18.5 C 26.1585,18.0146 27.4919,19.848 25.5,24C 20.7282,24.8104 19.3948,22.9771 21.5,18.5 Z"/></g>
<g><path style="opacity:1" fill="#c3ced2" d="M 18.5,30.5 C 22.1612,30.3501 23.1612,31.8501 21.5,35C 17.7071,35.4866 16.7071,33.9866 18.5,30.5 Z"/></g>
<g><path style="opacity:1" fill="#c3ced2" d="M 25.5,30.5 C 29.1612,30.3501 30.1612,31.8501 28.5,35C 24.7071,35.4866 23.7071,33.9866 25.5,30.5 Z"/></g>
<g><path style="opacity:1" fill="#c3ced2" d="M 18.5,37.5 C 22.1612,37.3501 23.1612,38.8501 21.5,42C 17.7071,42.4866 16.7071,40.9866 18.5,37.5 Z"/></g>
<g><path style="opacity:1" fill="#c3ced2" d="M 25.5,37.5 C 29.1612,37.3501 30.1612,38.8501 28.5,42C 24.7071,42.4866 23.7071,40.9866 25.5,37.5 Z"/></g>
</svg>
